<?xml version="1.0" encoding="utf-8"?>
<!-- Generator: Adobe Illustrator 26.0.2, SVG Export Plug-In . SVG Version: 6.00 Build 0)  -->
<svg version="1.1" xmlns="http://www.w3.org/2000/svg" xmlns:xlink="http://www.w3.org/1999/xlink" x="0px" y="0px"
	 viewBox="0 0 472 340" style="enable-background:new 0 0 472 340;" xml:space="preserve">
<style type="text/css">
	.st0{fill:#DBC64E;}
	.st1{fill:#FFFFFF;}
	.st2{fill:none;stroke:#FFFFFF;stroke-width:7;stroke-miterlimit:10;}
</style>
<g id="Layer_1">
	<g id="Layer_1_00000007411463197909187250000003480547708531184055_">
		<rect class="st0" width="472" height="340"/>
	</g>
</g>
<g id="Layer_2">
	<g id="Layer_2_00000065034270555895765150000002100554337872781486_">
		<g>
			<path class="st1" d="M46.2,79.1c4.7,3.7,13.1,4.6,18,0.8c7.8-6,0.5-19,8.6-26.7c5.3-5,15-5.5,22-1.6c6.4,3.6,9.5,10.6,9.8,16.1
				c0.7,11.5-10.3,24-27.9,28.6c0.3,15.4,0.5,30.8,0.8,46.3h25.9c0-11.8,0-23.5,0-35.3c16.7-7.8,27.7-23.7,27.8-40.6
				c0.2-22-15.9-45.6-43.5-45.6c-2.7,0-28.9,0.6-40.8,20.3C40.1,52.7,36.9,71.9,46.2,79.1z"/>
			<path class="st1" d="M90.9,173.4L90.9,173.4c-6.8,0-12.4-5.6-12.4-12.4l0,0c0-6.9,5.6-12.4,12.4-12.4l0,0
				c6.8,0,12.4,5.6,12.4,12.4l0,0C103.3,167.9,97.8,173.4,90.9,173.4z"/>
		</g>
		<g>
			<path class="st1" d="M339.7,142.8c-84.9,10.5-94.8-122.8-11-125.9C413.6,6.3,423.5,139.6,339.7,142.8z M330.5,37.5
				c-56.2,1.8-49.3,91.9,7.4,84.5C394.1,120.3,387.2,30.1,330.5,37.5z"/>
			<path class="st1" d="M420.2,170.8l-53.6-41.3c-13.4-10,3.7-32.3,16.8-21.8L437,149c5.5,4.2,6.5,12.1,2.3,17.6
				C435.3,173.3,426.5,175.8,420.2,170.8z"/>
		</g>
		<g>
			<path class="st1" d="M117.4,242.5c26-11.1,52-22.1,78-33.2c11.3-12,22.6-23.9,33.9-35.9c0.3,50.1,0.6,100.2,1,150.3
				c-12.2-11.9-24.4-23.7-36.6-35.6c-25.4-10.1-50.9-20.1-76.3-30.2C117.4,252.8,117.4,247.7,117.4,242.5z"/>
			<path class="st2" d="M256.4,186.6c5.4,10.7,15.7,34.7,14.1,66.7c-1.6,32.3-14.5,55.3-20.9,65.4"/>
			<path class="st2" d="M285.9,205.3c4.2,8.4,12.4,27.3,11.1,52.4c-1.2,25.3-11.4,43.5-16.4,51.4"/>
			<path class="st2" d="M315.3,221.7c3,5.9,8.8,19.4,7.9,37.2c-0.9,18-8.1,30.8-11.7,36.5"/>
		</g>
	</g>
</g>
</svg>
