<?xml version="1.0" encoding="utf-8"?>
<!-- Generator: Adobe Illustrator 26.0.2, SVG Export Plug-In . SVG Version: 6.00 Build 0)  -->
<svg version="1.1" xmlns="http://www.w3.org/2000/svg" xmlns:xlink="http://www.w3.org/1999/xlink" x="0px" y="0px"
	 viewBox="0 0 946 172" style="enable-background:new 0 0 946 172;" xml:space="preserve">
<style type="text/css">
	.st0{fill:#DBC64E;}
	.st1{fill:none;}
	.st2{fill:#FFFFFF;}
	.st3{fill:none;stroke:#FFFFFF;stroke-width:7;stroke-miterlimit:10;}
</style>
<g id="Layer_2">
	<rect class="st0" width="946" height="172"/>
</g>
<g id="Layer_1">
	<rect x="30" class="st1" width="260" height="172"/>
	<g>
		<path class="st2" d="M107.4,65.38c4.71,3.68,13.12,4.57,18.03,0.78c7.82-6.02,0.51-19.01,8.63-26.66
			c5.27-4.97,15.01-5.53,21.96-1.57c6.39,3.64,9.51,10.57,9.84,16.1c0.69,11.51-10.35,24-27.88,28.6
			c0.26,15.42,0.52,30.84,0.78,46.26h25.88c0-11.76,0-23.52,0-35.28c16.72-7.8,27.7-23.72,27.82-40.62
			c0.16-22.01-15.9-45.58-43.47-45.58c-2.72,0.02-28.88,0.65-40.81,20.34C101.38,38.96,98.13,58.14,107.4,65.38z"/>
		<path class="st2" d="M152.17,159.71L152.17,159.71c-6.85,0-12.41-5.55-12.41-12.41v0c0-6.85,5.55-12.41,12.41-12.41h0
			c6.85,0,12.41,5.55,12.41,12.41v0C164.57,154.16,159.02,159.71,152.17,159.71z"/>
	</g>
	<g>
		<path class="st2" d="M454.79,133.94C369.87,144.43,359.96,11.12,443.76,8C528.68-2.49,538.59,130.82,454.79,133.94z M445.58,28.7
			c-56.23,1.78-49.34,91.95,7.4,84.54C509.2,111.46,502.31,21.29,445.58,28.7z"/>
		<path class="st2" d="M535.23,161.98l-53.65-41.33c-13.41-10.01,3.71-32.27,16.82-21.84c0,0,53.65,41.33,53.65,41.33
			c5.5,4.24,6.53,12.14,2.29,17.64C550.36,164.44,541.56,166.94,535.23,161.98z"/>
	</g>
	<g>
		<path class="st2" d="M695.11,79.92c26.01-11.06,52.01-22.12,78.02-33.18c11.32-11.97,22.64-23.93,33.95-35.9
			c0.32,50.11,0.64,100.22,0.96,150.33c-12.22-11.87-24.43-23.74-36.65-35.61c-25.43-10.06-50.86-20.12-76.29-30.18
			C695.11,90.22,695.11,85.07,695.11,79.92z"/>
		<path class="st3" d="M834.12,23.97c5.38,10.66,15.73,34.73,14.14,66.71c-1.6,32.26-14.48,55.34-20.92,65.39"/>
		<path class="st3" d="M863.58,42.71c4.22,8.37,12.35,27.28,11.11,52.39c-1.25,25.33-11.37,43.46-16.43,51.36"/>
		<path class="st3" d="M892.99,59.09c3,5.94,8.77,19.36,7.88,37.18c-0.89,17.98-8.07,30.84-11.66,36.45"/>
	</g>
</g>
</svg>
