<?xml version="1.0" encoding="utf-8"?>
<!-- Generator: Adobe Illustrator 26.2.1, SVG Export Plug-In . SVG Version: 6.00 Build 0)  -->
<svg version="1.1" id="svg" xmlns="http://www.w3.org/2000/svg" xmlns:xlink="http://www.w3.org/1999/xlink" x="0px" y="0px"
	 viewBox="0 0 400 400" style="enable-background:new 0 0 400 400;" xml:space="preserve">
<style type="text/css">
	.st0{fill-rule:evenodd;clip-rule:evenodd;fill:#1DDA63;}
</style>
<g id="svgg">
	<path id="path0" class="st0" d="M184,0.7c-9.4,1-13.6,1.6-24.4,3.5C155.7,4.9,144,8,138.5,9.8c-3.6,1.2-9.5,3.3-11.9,4.3
		c-0.8,0.4-3.1,1.3-5.1,2.1C82.9,32,47.6,63.6,25.7,101.9c-2.5,4.3-8.8,17.2-10.3,21.1c-0.5,1.3-1.3,3.2-1.8,4.3
		c-3,7-8.4,25.9-10.1,35.3c-0.3,1.8-0.8,4.3-1,5.6c-0.5,2.6-1.3,9.3-2,17.5c-0.7,7.1-0.7,23.3,0,29.6c1,10.2,1.6,14.7,2.6,20.2
		c0.9,5.2,3.5,16.2,4.5,19.8c1.5,4.9,5.7,17.3,6,17.8c0.2,0.3,0.6,1.1,0.8,1.8c0.4,1.2,0.7,2.1,3.3,7.9
		c23,51.6,74.5,96.5,125.6,109.4c0.8,0.2,4.3,1.1,7.6,2c30,7.9,68.8,8,97.6,0.2c1.5-0.4,4-1.1,5.6-1.5c43.6-11.6,86-42.3,111.6-80.7
		c6.6-9.9,17.9-30.7,17.9-32.9c0-0.4,0.2-0.9,0.4-1.2c1-1.1,6.7-17.2,8.4-23.7c0.4-1.6,1.1-4.1,1.5-5.6c7.7-28.5,7.7-67-0.2-97.3
		c-0.8-3.2-1.7-6.4-1.8-7.1c-10.3-40.4-42.3-84.5-79.4-109.5c-4.3-2.9-12.1-7.8-12.5-7.8c-0.1,0-1.1-0.6-2.2-1.2
		c-2.1-1.3-11.6-6.2-15.3-7.8c-1.3-0.6-3.8-1.6-5.6-2.4c-1.8-0.8-4-1.7-5-2.1c-1.8-0.8-13.1-4.6-15.6-5.3
		C229.9,1.2,204.6-1.4,184,0.7 M197.7,106.8c10.5,0.8,26.5,2.4,33,3.5c1.7,0.3,4.7,0.7,6.8,1c32.4,4.8,68.4,16.6,95.3,31.2
		c12.4,6.8,16.6,15.4,12.5,25.9c-3.7,9.4-16.5,14.4-25.1,9.8c-7.4-3.9-21.6-11-23.6-11.8c-1.3-0.5-3-1.2-3.8-1.6
		c-7.9-3.4-24.8-8.9-35.5-11.4c-1.4-0.3-3.8-0.9-5.3-1.3c-3.2-0.8-13.5-2.7-22.6-4.3c-44.1-7.5-99.9-5.4-138.3,5.1
		c-6.4,1.8-7.9,2-11.4,1.8c-18.1-0.9-24.1-24.2-8.9-34.2c7.5-4.9,43.3-11.7,72.8-13.8C152.4,106.2,188.9,106.2,197.7,106.8
		 M182.7,175.3c26.9,1.4,53,6.2,77.7,14.4c28,9.3,53.1,22.3,56.4,29.4c7.2,15.2-9.8,28.7-24,19.2c-4.3-2.9-18.7-10-26.6-13.2
		c-31.5-12.6-65-18.8-100.9-18.8c-23.5,0-44.1,2.8-67.8,9.2c-6.4,1.7-8.6,1.7-12.5,0c-13.4-5.9-12.5-24.4,1.4-29.1
		C110.9,177.9,149.5,173.5,182.7,175.3 M188.9,240.8c2.9,0.3,7.6,0.7,10.6,1c22.6,2.3,48.3,9.5,69.3,19.5c7.1,3.4,18.9,10,20.4,11.4
		c9.3,8.7,1.8,24-10.6,21.6c-0.9-0.2-4.4-1.9-7.8-3.8c-25.9-14.6-50.6-22-82.7-24.7c-13.5-1.1-39.8-0.6-50.7,1
		c-0.9,0.1-3.4,0.5-5.7,0.8c-7.1,1-17.1,2.6-20.8,3.4c-2,0.4-5.8,1.2-8.6,1.8c-11.7,2.4-18.3-1.7-18.3-11.5
		c0-7.6,3.3-10.7,13.9-13.1C126.5,241.8,166.3,238.5,188.9,240.8"/>
</g>
</svg>
